<?xml version="1.0" encoding="utf-8"?>
<!-- Generator: Adobe Illustrator 26.2.1, SVG Export Plug-In . SVG Version: 6.00 Build 0)  -->
<svg version="1.1" id="Layer_1" xmlns="http://www.w3.org/2000/svg" xmlns:xlink="http://www.w3.org/1999/xlink" x="0px" y="0px"
	 viewBox="0 0 69 69" style="enable-background:new 0 0 69 69;" xml:space="preserve">
<style type="text/css">
	.st0{fill:#1E1E1E;}
</style>
<g>
	<path class="st0" d="M28.2,29.3c0-1.9-1.2-2.7-3.6-2.7l-5.2,0v5.8h5.2C27.2,32.5,28.2,31.2,28.2,29.3z"/>
	<path class="st0" d="M25.4,36.1l-6,0V43l6,0c2.5,0,3.8-1.3,3.8-3.4C29.2,37.4,27.9,36.1,25.4,36.1z"/>
	<path class="st0" d="M45.5,32.4c-0.1,0-0.2,0-0.3,0c-2.1-0.1-3.9,1.4-4,3.5c0,0.1,0,0.2,0,0.4h7.9C49.1,34.2,47.5,32.5,45.5,32.4z"
		/>
	<path class="st0" d="M34.5,0C15.4,0,0,15.4,0,34.5S15.4,69,34.5,69S69,53.6,69,34.5S53.6,0,34.5,0z M25.1,47.2H14l0-24.9h12.1
		c4.8,0.2,7.2,2.2,7.3,5.3c0.2,3-0.6,4.7-3.3,6.1c2.9,1,4.1,2.6,4.5,6.1C35,43.3,32,47.5,25.1,47.2z M54,39.4H41.2
		c0,3.2,2,4.6,4.1,4.6c2.1-0.1,3.5-0.8,4.1-2.4h4.3c-1.7,5-4.7,6.1-8.3,6.1c-1.8,0-4.9-0.5-6.7-2.6c-1.6-1.8-2.5-4.1-2.5-6.5
		c-0.3-4.9,2.9-10,9.1-10h0C51.5,28.6,54.2,33.5,54,39.4z"/>
</g>
</svg>
