<?xml version="1.0" encoding="UTF-8"?><svg id="a" xmlns="http://www.w3.org/2000/svg" viewBox="0 0 69 69"><defs><style>.b{fill:#ffcf24;}</style></defs><path class="b" d="M47.42,25.22c-1.36,0-2.46,1.1-2.46,2.46s1.1,2.46,2.46,2.46,2.46-1.1,2.46-2.46-1.1-2.46-2.46-2.46Z"/><path class="b" d="M29.02,30.12h-3.54v-3.54c0-.77-.62-1.39-1.39-1.39s-1.39,.62-1.39,1.39v3.54h-3.54c-.77,0-1.39,.62-1.39,1.39s.62,1.39,1.39,1.39h3.54v3.54c0,.77,.62,1.39,1.39,1.39s1.39-.62,1.39-1.39v-3.54h3.54c.77,0,1.39-.62,1.39-1.39s-.62-1.39-1.39-1.39Z"/><path class="b" d="M42.49,31.51c-1.36,0-2.46,1.1-2.46,2.46s1.1,2.46,2.46,2.46,2.46-1.1,2.46-2.46-1.1-2.46-2.46-2.46Z"/><path class="b" d="M34.5,0C15.45,0,0,15.45,0,34.5s15.45,34.5,34.5,34.5,34.5-15.45,34.5-34.5S53.55,0,34.5,0Zm19.1,51.11c-9.84,3.84-11.55-4.47-14.49-8.11h-9.23c-2.94,3.64-4.65,11.96-14.49,8.11-8-3.12-4.39-31.15,6.61-33.82,7.77-1.88,8.69,3.68,12.5,3.68s4.73-5.56,12.5-3.68c10.99,2.67,14.61,30.7,6.61,33.82Z"/></svg>