<?xml version="1.0" encoding="utf-8"?>
<!-- Generator: Adobe Illustrator 26.2.1, SVG Export Plug-In . SVG Version: 6.00 Build 0)  -->
<svg version="1.1" id="Layer_1" xmlns="http://www.w3.org/2000/svg" xmlns:xlink="http://www.w3.org/1999/xlink" x="0px" y="0px"
	 viewBox="0 0 69 69" style="enable-background:new 0 0 69 69;" xml:space="preserve">
<style type="text/css">
	.st0{fill:#1E1E1E;}
</style>
<path class="st0" d="M34.5,0C15.4,0,0,15.4,0,34.5S15.4,69,34.5,69S69,53.6,69,34.5S53.6,0,34.5,0z M26.1,49.9h-6.4V29.3h6.4V49.9z
	 M22.9,26.7c-2.1,0-3.9-1.7-3.9-3.9s1.7-3.9,3.9-3.9s3.9,1.7,3.9,3.9S25,26.7,22.9,26.7z M50,49.9h-6.6c0,0,0-11.2,0-11.2
	c0.1-5.7-7-5.4-7,0c0,0,0,11.2,0,11.2h-6.4V29.3h6.4c0,0,0,2.6,0,2.6c2.1-5.1,13.3-4.8,13.6,3.7C50,37.1,50,49.9,50,49.9z"/>
</svg>
