<?xml version="1.0" encoding="UTF-8"?><svg id="a" xmlns="http://www.w3.org/2000/svg" viewBox="0 0 69 69"><defs><style>.b{fill:#ffcf24;}</style></defs><path class="b" d="M22.54,25.23c-1.78,0-3.22,1.44-3.22,3.22s1.44,3.22,3.22,3.22,3.22-1.44,3.22-3.22-1.44-3.22-3.22-3.22Z"/><path class="b" d="M32.26,17.5c-1.78,0-3.22,1.44-3.22,3.22s1.44,3.22,3.22,3.22,3.22-1.44,3.22-3.22-1.44-3.22-3.22-3.22Z"/><path class="b" d="M21.71,37.59c-1.78,0-3.22,1.44-3.22,3.22s1.44,3.22,3.22,3.22,3.22-1.44,3.22-3.22-1.44-3.22-3.22-3.22Z"/><circle class="b" cx="44.75" cy="23.94" r="3.22"/><path class="b" d="M34.5,0C15.45,0,0,15.45,0,34.5s15.45,34.5,34.5,34.5,34.5-15.45,34.5-34.5S53.55,0,34.5,0Zm19.44,41.36c-4.04,8.55-13.39,16.51-23.06,14.58-4.53-.91,6.12-3.84,3.25-8.43-.48-.77-2.09-1.7-4.09-.87-3.72,1.54-9.68,7.26-14.55-.07-5.9-8.88-1.25-30.23,13.6-33.21,19.92-4,31.91,13.03,24.85,27.99Z"/></svg>