<?xml version="1.0" encoding="UTF-8"?><svg id="a" xmlns="http://www.w3.org/2000/svg" viewBox="0 0 69 69"><defs><style>.b{fill:#ffcf24;}</style></defs><path class="b" d="M34.5,0C15.45,0,0,15.45,0,34.5s15.45,34.5,34.5,34.5,34.5-15.45,34.5-34.5S53.55,0,34.5,0Zm22.88,41.04c-.66,1.86-9.77,13.19-11.69,13.86-1.14,.4-2.87-1.63-3.14-2.36-.31-.84,1.02-3.14,1.74-5.56-3.85-3.08-9.61-7.68-11.6-8.86-1.84,.51-7.99,17.43-8.88,17.38-.89-.05-2.7-1.69-4.23-3.08-1.53-1.39,4.26-15.42,5.1-21.4-1.24-2.05-13.39-10.7-10.09-14.57,3.3-3.87,13.51,6.66,15.98,7.67,5.77-1.77,18.72-9.69,20.33-8.4,1.61,1.29,3.52,2.83,3.7,3.69,.19,.87-15.56,9.6-15.77,11.5,2.37,2.34,9.26,9.02,10.57,10.06,2.27-1.09,4.32-2.54,5.21-2.59,.89-.05,3.12,1.62,2.76,2.65Z"/></svg>