<?xml version="1.0" encoding="UTF-8"?><svg id="a" xmlns="http://www.w3.org/2000/svg" viewBox="0 0 69 69"><defs><style>.b{fill:#ffcf24;}</style></defs><path class="b" d="M34.5,0C15.45,0,0,15.45,0,34.5s15.45,34.5,34.5,34.5,34.5-15.45,34.5-34.5S53.55,0,34.5,0Zm2.97,58.48c-10.85-8.01-11.26-22.41-11.36-34.28-1.01,8.01-1.62,16.13,.87,22.51-1.57-.21-2.36-.64-3.41-1.3-10.24-6.4-2.53-22.33,4.67-29.15-.3,10.21,12.47,16.45,7.4,26.8-.65,1.33-2.23,3.35-3.96,3.65-.23,.04,.67,4.36,7.26,8.11,0,1.62-.2,3.25-1.48,3.65Zm.51-15.01c2.08-3.55,1.71-8.47,.2-10.9,1.8-1.65,2.54-3.93,3.04-7.76-1.54,3.68-3.27,5.38-4.35,5.42-1.07-2.07-2.58-4.3-3.75-5.75,1.15-3.17,9.98-7.61,11.87-8.5-1.03,10.85,6.71,24.34-7.01,27.49Z"/></svg>