<svg xmlns="http://www.w3.org/2000/svg" width="69" height="69.946" viewBox="0 0 69 69.946">
  <g id="Group_5" data-name="Group 5" transform="translate(-941.645 -691)">
    <circle id="Ellipse_2" data-name="Ellipse 2" cx="34.5" cy="34.5" r="34.5" transform="translate(941.645 691)" fill="#1e1e1e"/>
    <path id="Path_1" data-name="Path 1" d="M898.411,1475.4c1.34-1.489,2.348-6.315,1.562-8.149-7.892,1.413-10.373-3.24-11.3-5.927s-4.418-3.669-4.239-4.446c.207-.62,3.412-.827,5.479,1.075s2.688,6.058,10.063,4.583a9.437,9.437,0,0,1,1.7-4.583c-14.929-1.179-16.5-16.763-10.215-23.965-1.137-1.2-1.441-7.727.524-8.774s7.6,2.619,7.988,3.667c2.75-1.7,12.733-1.964,15.614,0,1.964-1.964,6.76-3.99,8.2-3.2s1.3,6.488.474,8c6.235,7.184,5.422,23.246-10.539,24.279,4.322,3.667.436,14.3,3.448,17.447S895.908,1477.845,898.411,1475.4Z" transform="translate(69.64 -716.556)" fill="#e6e6e6"/>
  </g>
</svg>
